HIERARCHY
ROOT Hips
{
	OFFSET 0.000000 0.000000 0.000000 
	CHANNELS 6 Xposition Yposition Zposition Yrotation Zrotation Xrotation 
	JOINT Lumbar
	{
		OFFSET 0.000000 0.000000 0.000000 
		CHANNELS 3 Zrotation Xrotation Yrotation
		JOINT Neck
		{
			OFFSET 0.000000 0.445665 0.000000 
			CHANNELS 3 Zrotation Xrotation Yrotation
			End Site
			{
				OFFSET 0.000000 0.227535 0.000000 
			}
		}
		JOINT RightShoulder
		{
			OFFSET 0.019635 0.377685 0.194865 
			CHANNELS 3 Zrotation Xrotation Yrotation
			JOINT RightElbow
			{
				OFFSET 0.000000 -0.243375 0.000000 
				CHANNELS 2 Zrotation Yrotation
				JOINT RightWrist
				{
					OFFSET 0.000000 -0.264825 0.000000 
					CHANNELS 2 Zrotation Xrotation
					End Site
					{
						OFFSET 0.006600 -0.176220 0.000990 
					}
				}
			}
		}
		JOINT LeftShoulder
		{
			OFFSET 0.019635 0.377685 -0.194865 
			CHANNELS 3 Zrotation Xrotation Yrotation
			JOINT LeftElbow
			{
				OFFSET 0.000000 -0.243375 0.000000 
				CHANNELS 2 Zrotation Yrotation
				JOINT LeftWrist
				{
					OFFSET 0.000000 -0.264825 0.000000 
					CHANNELS 2 Zrotation Xrotation
					End Site
					{
						OFFSET 0.006600 -0.176220 -0.000990 
					}
				}
			}
		}
	}
	JOINT RightHip
	{
		OFFSET 0.052140 -0.069960 0.075570 
		CHANNELS 3 Zrotation Xrotation Yrotation
		JOINT RightKnee
		{
			OFFSET 0.000000 -0.402270 0.000000 
			CHANNELS 1 Zrotation
			JOINT RightAnkle
			{
				OFFSET 0.000000 -0.404085 0.000000 
				CHANNELS 3 Zrotation Xrotation Yrotation
				End Site
				{
					OFFSET 0.204105 -0.089430 0.008415 
				}
			}
		}
	}
	JOINT LeftHip
	{
		OFFSET 0.052140 -0.069960 -0.075570 
		CHANNELS 3 Zrotation Xrotation Yrotation
		JOINT LeftKnee
		{
			OFFSET 0.000000 -0.402270 0.000000 
			CHANNELS 1 Zrotation
			JOINT LeftAnkle
			{
				OFFSET 0.000000 -0.404085 0.000000 
				CHANNELS 3 Zrotation Xrotation Yrotation
				End Site
				{
					OFFSET 0.204105 -0.089430 -0.008415 
				}
			}
		}
	}
}
MOTION
Frames: 28
Frame Time: 0.02
-0.00038 0.00046 0.00048 -170.16763 -27.1352 2.23706 43.3879 -0.8682 -9.02274 -14.03929 5.53429 -1.18299 -18.66706 -1.45467 -26.23785 23.94155 141.67431 19.31895 9.86753 -26.97915 5.67161 2.19335 31.39004 -106.41299 16.21649 -2.11635 26.43715 -2.45831 -6.63125 -19.95868 -6.21083 -3.21286 -3.73681 32.47703 2.47058 4.62481 -23.91476 -6.4731 1.62557 3.01442
0.0003 0.00043 0.00011 -170.17244 -27.12769 2.2406 43.37506 -0.85055 -9.04938 -13.93381 5.52792 -1.18378 -18.68684 -1.60025 -26.28512 23.74228 139.50286 18.78869 9.4932 -26.96327 5.77842 2.04269 31.38744 -106.40319 16.2208 -2.12611 26.48518 -2.50879 -6.99457 -19.96889 -6.19309 -3.16912 -3.71838 32.5228 2.55644 4.97247 -23.92467 -6.48588 1.58619 2.99793
0.00098 0.00041 -0.00026 -170.17731 -27.12016 2.24413 43.36223 -0.83294 -9.07585 -13.82853 5.52159 -1.18456 -18.70664 -1.74564 -26.33144 23.5434 137.33826 18.2601 9.12003 -26.94729 5.88499 1.89216 31.38465 -106.39351 16.22517 -2.13584 26.53308 -2.55908 -7.35672 -19.97909 -6.17541 -3.12552 -3.7 32.56842 2.642 5.31871 -23.93456 -6.49861 1.54697 2.98151
0.00166 0.00038 -0.00063 -170.18211 -27.11267 2.24766 43.34942 -0.81534 -9.10239 -13.72336 5.51524 -1.18534 -18.72638 -1.89082 -26.37843 23.34472 135.17355 17.73149 8.74685 -26.93143 5.99149 1.74191 31.38202 -106.38375 16.22948 -2.14556 26.58097 -2.6094 -7.7189 -19.98927 -6.15773 -3.08191 -3.68163 32.61405 2.72758 5.66522 -23.94445 -6.51134 1.50772 2.96507
0.00233 0.00035 -0.001 -170.18684 -27.10522 2.25123 43.33662 -0.79773 -9.12912 -13.61803 5.50885 -1.18612 -18.74602 -2.03607 -26.42667 23.14573 133.00185 17.20116 8.37251 -26.91572 6.0982 1.59166 31.37969 -106.37387 16.2337 -2.15534 26.62899 -2.65992 -8.08229 -19.99946 -6.13999 -3.03817 -3.6632 32.65982 2.8135 6.01335 -23.95436 -6.52413 1.46829 2.94855
0.00301 0.00033 -0.00137 -170.19199 -27.0975 2.25467 43.32373 -0.78011 -9.15505 -13.51287 5.50267 -1.1869 -18.76615 -2.18176 -26.46897 22.94707 130.85227 16.67626 8.00184 -26.89919 6.20447 1.44057 31.37594 -106.36461 16.2384 -2.16498 26.67663 -2.70971 -8.44182 -20.00968 -6.12243 -2.99485 -3.64495 32.70514 2.8983 6.35564 -23.9642 -6.53674 1.42949 2.93233
0.00369 0.0003 -0.00174 -170.19627 -27.09034 2.25835 43.31103 -0.76252 -9.18257 -13.40748 5.49605 -1.18768 -18.78534 -2.32643 -26.52316 22.74801 128.66086 16.14111 7.62421 -26.88431 6.31151 1.29132 31.37498 -106.35403 16.24212 -2.17485 26.72498 -2.76092 -8.80865 -20.01983 -6.10452 -2.95074 -3.62636 32.75131 2.98522 6.70911 -23.97416 -6.54968 1.38949 2.91554
0.00437 0.00027 -0.00211 -170.20138 -27.08267 2.2618 43.29815 -0.7449 -9.20861 -13.30232 5.48985 -1.18846 -18.80529 -2.47199 -26.5664 22.54924 126.50743 15.61521 7.25293 -26.86795 6.41783 1.14039 31.37159 -106.34483 16.24676 -2.18455 26.77268 -2.81083 -9.16886 -20.03005 -6.08693 -2.90734 -3.60808 32.7967 3.07026 7.05261 -23.98402 -6.56233 1.35058 2.89926
0.00504 0.00025 -0.00248 -170.20743 -27.07434 2.26501 43.28504 -0.72727 -9.2329 -13.19729 5.48412 -1.18926 -18.82664 -2.61893 -26.59607 22.35101 124.40195 15.1012 6.88955 -26.84959 6.52337 0.98723 31.3646 -106.33668 16.25246 -2.19388 26.81958 -2.85914 -9.5207 -20.04033 -6.06973 -2.86484 -3.59019 32.84113 3.15271 7.38266 -23.99375 -6.5746 1.31307 2.88368
0.00573 0.00021 -0.00284 -170.20785 -27.06971 2.26974 43.27325 -0.70979 -9.26741 -13.09106 5.47557 -1.19 -18.84135 -2.75883 -26.70324 22.15025 122.02512 14.52055 6.48113 -26.84217 6.63371 0.84634 31.37646 -106.3206 16.25186 -2.20486 26.87109 -2.91659 -9.91987 -20.05019 -6.05031 -2.81725 -3.57008 32.89109 3.24919 7.78629 -24.0042 -6.58896 1.26768 2.86428
0.00639 0.0002 -0.00322 -170.22029 -27.05733 2.27118 43.25867 -0.69191 -9.2803 -12.98768 5.47302 -1.19084 -18.86913 -2.91297 -26.64738 21.95449 120.218 14.07942 6.16746 -26.81202 6.7337 0.67998 31.34974 -106.32245 16.26468 -2.21266 26.91288 -2.95482 -10.21969 -20.06097 -6.03556 -2.78038 -3.55463 32.92935 3.31665 8.03715 -24.01313 -6.59897 1.23879 2.85282
0.00695 0.00022 -0.00364 -170.26448 -27.023 2.26423 43.23634 -0.67354 -9.23394 -12.88954 5.48649 -1.19197 -18.94139 -3.11165 -26.13402 21.77591 120.00576 14.03201 6.11738 -26.71611 6.80666 0.44068 31.20644 -106.37151 16.31608 -2.21039 26.92751 -2.93939 -10.23982 -20.07403 -6.03398 -2.77342 -3.5522 32.93539 3.29869 7.84379 -24.01778 -6.59643 1.25668 2.86425
0.00748 0.00025 -0.00407 -170.32077 -26.98099 2.2539 43.21125 -0.65469 -9.16599 -12.79483 5.50588 -1.1932 -19.0255 -3.32366 -25.45775 21.60224 120.35536 14.12165 6.16096 -26.59812 6.86881 0.17714 31.02645 -106.444 16.3823 -2.20606 26.93243 -2.90485 -10.16138 -20.08808 -6.03703 -2.77715 -3.5544 32.92966 3.25254 7.50127 -24.02091 -6.58962 1.29085 2.88346
0.00802 0.00028 -0.0045 -170.37256 -26.943 2.24464 43.18744 -0.63564 -9.10775 -12.70008 5.52306 -1.19438 -19.09818 -3.52595 -24.86404 21.42338 120.43283 14.14278 6.16033 -26.4923 6.93522 -0.07427 30.87018 -106.50061 16.43844 -2.20246 26.94219 -2.87965 -10.13281 -20.10179 -6.03771 -2.77562 -3.55428 32.92942 3.22323 7.24387 -24.02478 -6.58517 1.3166 2.8984
0.00856 0.00031 -0.00492 -170.42095 -26.9029 2.23713 43.16341 -0.61823 -9.04943 -12.59852 5.53897 -1.19556 -19.19512 -3.74357 -24.23849 21.25479 120.60036 14.19469 6.17009 -26.37695 7.00503 -0.33356 30.68388 -106.55856 16.50182 -2.19614 26.95036 -2.8516 -10.08311 -20.11489 -6.0395 -2.7757 -3.555 32.92868 3.17737 6.91463 -24.02844 -6.57897 1.3467 2.91643
0.0091 0.00033 -0.00535 -170.47831 -26.86517 2.22543 43.13932 -0.59745 -8.98675 -12.51246 5.55797 -1.19677 -19.24596 -3.9326 -23.63505 21.06878 120.69092 14.20973 6.17634 -26.27679 7.06436 -0.57826 30.55169 -106.64533 16.56232 -2.19947 26.95926 -2.82503 -10.05345 -20.12968 -6.04013 -2.7751 -3.55515 32.92605 3.15865 6.69759 -24.03217 -6.57538 1.37159 2.92989
0.00966 0.00035 -0.00578 -170.56528 -26.83758 2.20082 43.11464 -0.56611 -8.91192 -12.46438 5.59192 -1.19798 -19.15296 -4.03745 -23.18395 20.80975 120.63083 14.1359 6.18596 -26.21911 7.10554 -0.81252 30.57627 -106.56609 16.53127 -2.18883 26.975 -2.80673 -10.10873 -20.14732 -6.03604 -2.76884 -3.55196 32.92238 3.22754 6.84504 -24.0366 -6.58008 1.37822 2.92848
0.01022 0.00036 -0.00621 -170.65891 -26.8123 2.17256 43.09031 -0.53167 -8.83428 -12.43275 5.627 -1.19922 -19.016 -4.11315 -22.75316 20.53758 120.44231 14.01301 6.18307 -26.17842 7.13569 -1.02622 30.65716 -106.54804 16.50791 -2.19359 26.99132 -2.79068 -10.18667 -20.16687 -6.03073 -2.76177 -3.54817 32.91706 3.32359 7.10709 -24.04113 -6.58756 1.37901 2.92226
0.01078 0.00038 -0.00664 -170.74502 -26.78484 2.14732 43.06639 -0.49951 -8.76164 -12.39588 5.65681 -1.20046 -18.90772 -4.20387 -22.2769 20.28678 120.17429 13.88013 6.16106 -26.13312 7.16474 -1.22372 30.71301 -106.67423 16.53836 -2.22089 27.00578 -2.77393 -10.25054 -20.18663 -6.02622 -2.75582 -3.54504 32.91153 3.4035 7.30491 -24.04551 -6.59371 1.38242 2.9185
0.01136 0.0004 -0.00709 -170.85258 -26.76192 2.11598 43.03954 -0.46354 -8.67317 -12.34871 5.70817 -1.20167 -18.76187 -4.28878 -21.93985 19.97056 120.48405 13.88218 6.24299 -26.07381 7.21657 -1.5231 30.76415 -106.12326 16.34315 -2.13188 27.02673 -2.75514 -10.32647 -20.20204 -6.02076 -2.74699 -3.54034 32.9093 3.4987 7.54925 -24.05023 -6.59993 1.38659 2.91393
0.01189 0.0004 -0.00749 -170.91434 -26.73014 2.09683 43.01948 -0.43491 -8.61648 -12.3281 5.71325 -1.20295 -18.68522 -4.3772 -21.32995 19.78813 119.58254 13.5975 6.10931 -26.04814 7.22178 -1.6136 30.84032 -106.93626 16.59984 -2.27822 27.03432 -2.74142 -10.38448 -20.22674 -6.01703 -2.74394 -3.5388 32.90036 3.56858 7.72532 -24.05436 -6.60679 1.38749 2.90971
0.01232 0.00034 -0.00778 -170.86878 -26.67366 2.10966 43.01315 -0.42614 -8.65467 -12.36647 5.60339 -1.20447 -18.79775 -4.49509 -19.87522 19.97207 115.1052 12.4652 5.33906 -26.10968 7.07209 -1.0562 30.95982 -112.03229 18.2758 -3.1635 27.00596 -2.74102 -10.38356 -20.27855 -6.01743 -2.75606 -3.54539 32.87004 3.5646 7.69064 -24.05618 -6.61428 1.38141 2.90814
0.01271 0.00025 -0.00802 -170.77238 -26.60815 2.13543 43.01455 -0.425 -8.72342 -12.43307 5.4442 -1.20608 -18.98397 -4.6151 -18.16211 20.29195 109.45831 11.05774 4.35987 -26.20466 6.88079 -0.30139 31.10449 -118.40724 20.37649 -4.26911 26.96396 -2.74577 -10.36507 -20.3393 -6.01981 -2.77419 -3.5553 32.83383 3.53389 7.5834 -24.05761 -6.62249 1.37196 2.90691
0.01311 0.00018 -0.00828 -170.68632 -26.54663 2.15693 43.01572 -0.42127 -8.77462 -12.49337 5.29922 -1.20764 -19.14437 -4.72576 -16.62483 20.55405 104.51761 9.82037 3.50512 -26.28574 6.72823 0.31066 31.24634 -123.8381 22.16567 -5.21129 26.92761 -2.74834 -10.35768 -20.39465 -6.02182 -2.79008 -3.56411 32.80236 3.51372 7.50573 -24.05954 -6.63064 1.36367 2.90521
0.01355 0.0001 -0.00859 -170.65678 -26.48572 2.17135 43.00321 -0.41414 -8.84297 -12.52614 5.18984 -1.2092 -19.26988 -4.87074 -14.84173 20.80005 98.84002 8.39228 2.52625 -26.36283 6.49375 1.13914 31.35583 -130.77135 24.44455 -6.41579 26.89372 -2.75029 -10.33782 -20.45561 -6.02137 -2.8037 -3.5711 32.76156 3.50109 7.44451 -24.05975 -6.63757 1.35709 2.90483
0.01391 3e-05 -0.00876 -170.49438 -26.42128 2.20382 43.02083 -0.41545 -8.88066 -12.6234 4.99346 -1.21081 -19.48737 -4.94522 -13.50884 21.11051 94.4152 7.29537 1.75551 -26.45481 6.41742 1.57379 31.53538 -134.91811 25.81782 -7.1329 26.85128 -2.75477 -10.33956 -20.5071 -6.02675 -2.82374 -3.58277 32.7395 3.46627 7.3326 -24.06392 -6.64742 1.34578 2.90162
0.01404 2e-05 -0.00859 -170.0018 -26.34993 2.28124 43.12064 -0.44217 -8.84538 -12.88588 4.57854 -1.2125 -19.92951 -4.82362 -13.4853 21.57751 93.78813 7.19204 1.61872 -26.5893 6.81221 0.78234 31.92476 -130.71127 24.46842 -6.39059 26.79043 -2.76443 -10.40494 -20.52942 -6.04596 -2.85769 -3.60574 32.76628 3.37486 7.07762 -24.07668 -6.66309 1.32607 2.89257
0.0141 2e-05 -0.00827 -169.37213 -26.27516 2.37651 43.24981 -0.47623 -8.77455 -13.21313 4.07611 -1.21427 -20.46322 -4.6313 -13.92353 22.10161 94.45347 7.42946 1.69723 -26.73557 7.36347 -0.39645 32.37968 -123.71883 22.21443 -5.16096 26.72123 -2.77638 -10.49287 -20.54219 -6.07131 -2.89835 -3.63344 32.81385 3.26235 6.77678 -24.09513 -6.68202 1.30108 2.88034
